<svg xmlns="http://www.w3.org/2000/svg" viewBox="0 0 31.07 42.4"><defs><style>.a{stroke:#000;stroke-width:0.4px;}</style></defs><title>Asset 1</title><path class="a" d="M15.54,13.84c-1.65,0-3-2-3-3.67a3,3,0,0,1,6,0C18.52,11.83,17.19,13.84,15.54,13.84Zm0-5.51a1.85,1.85,0,0,0-1.85,1.84c0,1.08.92,2.53,1.85,2.53s1.84-1.45,1.84-2.53a1.84,1.84,0,0,0-1.84-1.84Z"/><path class="a" d="M21.1,22.15H20V19.83a3.35,3.35,0,0,0-3.35-3.34H14.45a3.33,3.33,0,0,0-3.34,3.34v2.32H10V19.83a4.49,4.49,0,0,1,4.48-4.48h2.18a4.49,4.49,0,0,1,4.48,4.48Z"/><path class="a" d="M17.83,35.58H13.24V30.24h1.14v4.2h2.31v-4.2h1.14Z"/><path class="a" d="M19.15,42.2H18V35.58h-5V42.2H11.92V34.44h7.23Z"/><path class="a" d="M15.53,30.87A15.34,15.34,0,1,1,30.87,15.53,15.34,15.34,0,0,1,15.53,30.87Zm0-29.53a14.2,14.2,0,1,0,14.21,14.2A14.19,14.19,0,0,0,15.53,1.34Z"/><path class="a" d="M15.53,27.43a11.9,11.9,0,1,1,11.9-11.9h0A11.9,11.9,0,0,1,15.53,27.43Zm0-22.65A10.76,10.76,0,1,0,26.29,15.53,10.75,10.75,0,0,0,15.53,4.78Z"/></svg>